<svg
   viewBox="0 0 24 24"
   xmlns="http://www.w3.org/2000/svg">
  <path
     d="m 4.0035935,1.685e-4 c -0.95511,0 -1.740594,0.785484 -1.740594,1.740593 V 22.259238 c 0,0.95511 0.785485,1.740594 1.740594,1.740594 H 19.996406 c 0.955112,0 1.740594,-0.785484 1.740594,-1.740594 V 1.7407615 c 0,-0.955109 -0.785482,-1.740593 -1.740594,-1.740593 z m 0,1.05044 H 19.996406 c 0.387406,0 0.690155,0.30275 0.690155,0.690153 V 22.259238 c 0,0.387403 -0.302746,0.690152 -0.690155,0.690152 H 4.0035935 c -0.387404,0 -0.690153,-0.302752 -0.690153,-0.690152 V 1.7407615 c 0,-0.387402 0.30275,-0.690153 0.690153,-0.690153 z"
     id="path1" />
  <path
     d="m 12.000299,1.7410145 c -1.176426,0 -2.1414425,0.965016 -2.1414425,2.141442 0,1.176427 0.9650165,2.141442 2.1414425,2.141442 1.176425,0 2.140844,-0.965015 2.140844,-2.141442 0,-1.176426 -0.964419,-2.141442 -2.140844,-2.141442 z m 0,1.050439 c 0.608741,0 1.090406,0.482262 1.090406,1.091003 0,0.608741 -0.481665,1.091002 -1.090406,1.091002 -0.608742,0 -1.091003,-0.482261 -1.091003,-1.091002 0,-0.608741 0.482261,-1.091003 1.091003,-1.091003 z"
     id="path2" />
  <path
     d="m 14.651882,14.19237 -1.303506,1.303664 c -0.715604,0.715601 -0.715604,1.891564 0,2.607166 v 1.6e-4 c 0.715601,0.715545 1.891555,0.715455 2.607168,-1.6e-4 0.715555,-0.715609 0.715602,-1.891565 0,-2.607166 -0.311478,-0.311478 -0.623051,-0.623091 -0.934616,-0.934617 z m 0,1.476345 c 0.188474,0.188479 0.376925,0.376927 0.56541,0.565412 0.316686,0.316686 0.316812,0.814302 1.61e-4,1.130981 -0.316676,0.316675 -0.814293,0.316663 -1.130981,0 -0.316685,-0.316686 -0.316685,-0.814295 0,-1.130981 z"
     id="path3" />
  <path
     d="m 17.775213,16.871527 -1.303506,1.303664 c -0.715603,0.715603 -0.715603,1.891564 0,2.607167 0.715601,0.715546 1.891555,0.715613 2.607166,0 0.715559,-0.71561 0.715606,-1.891564 0,-2.607167 -0.311477,-0.311478 -0.622892,-0.62309 -0.934457,-0.934616 z m 0,1.476345 c 0.188486,0.188489 0.377074,0.376917 0.565568,0.565413 0.316686,0.316685 0.316652,0.814303 0,1.13098 -0.316676,0.316677 -0.814293,0.316664 -1.13098,0 -0.316686,-0.316686 -0.316686,-0.814294 0,-1.13098 z"
     id="path3-4" />
  <path
     d="m 6.6371485,14.293219 c -0.827835,0.01063 -1.487416,0.511982 -2.094456,0.937753 l 0.599447,0.854626 c 0.597101,-0.418799 1.160214,-0.743895 1.50834,-0.748445 0.282665,-0.0036 0.941293,0.395984 1.437604,0.715195 h 1.61e-4 c 0.214101,0.137642 0.542887,0.370371 0.907482,0.573724 0.364594,0.203354 0.762274,0.399704 1.2341815,0.397279 0.840946,-0.0043 1.482242,-0.527372 2.06638,-0.952025 l -0.613876,-0.844432 c -0.5841,0.424626 -1.111103,0.75074 -1.457994,0.752524 -0.122008,6.41e-4 -0.4208655,-0.0981 -0.7202125,-0.265062 -0.299308,-0.166941 -0.601788,-0.379727 -0.851334,-0.540161 h -1.6e-4 c -0.430867,-0.277144 -1.122185,-0.892321 -2.015407,-0.880976 z"
     id="path4" />
  <path
     d="m 6.6371485,16.461389 c -0.827835,0.01063 -1.487416,0.511983 -2.094456,0.937752 l 0.599447,0.854628 c 0.597101,-0.4188 1.160214,-0.743895 1.50834,-0.748446 0.282665,-0.0036 0.941293,0.395985 1.437604,0.715195 h 1.61e-4 c 0.214101,0.137642 0.542887,0.370371 0.907482,0.573725 0.364594,0.203353 0.762274,0.399702 1.2341815,0.397278 0.840946,-0.0044 1.482242,-0.527372 2.06638,-0.952025 l -0.613876,-0.844432 c -0.5841,0.424626 -1.111103,0.750741 -1.457994,0.752523 -0.122008,6.42e-4 -0.4208655,-0.0981 -0.7202125,-0.265061 -0.299308,-0.16694 -0.601788,-0.379726 -0.851334,-0.54016 h -1.6e-4 c -0.430867,-0.277144 -1.122185,-0.892322 -2.015407,-0.880977 z"
     id="path5" />
  <path
     d="m 6.4969315,18.549257 c -0.831812,0.01056 -1.498712,0.510456 -2.112491,0.936183 l 0.594898,0.857764 c 0.603928,-0.418894 1.173301,-0.745475 1.530768,-0.750013 0.292752,-0.0037 0.957771,0.397619 1.459406,0.716607 0.216725,0.137777 0.549162,0.370474 0.917363,0.573567 0.368201,0.203092 0.769509,0.398427 1.2428085,0.396024 0.844918,-0.0043 1.493399,-0.525818 2.084104,-0.950457 l -0.609327,-0.847569 c -0.590706,0.424639 -1.123702,0.75228 -1.480109,0.754092 -0.1272845,6.42e-4 -0.4302205,-0.09894 -0.7333895,-0.26616 -0.303169,-0.167221 -0.60921,-0.380169 -0.861371,-0.540473 -0.436139,-0.277339 -1.136131,-0.890824 -2.03266,-0.879565 z"
     id="path6" />
</svg>
